<svg width="156" height="50" viewBox="0 0 156 50" fill="none" xmlns="http://www.w3.org/2000/svg">
<path d="M74.6343 23.7905C73.7033 23.3399 72.5139 23.1116 71.1026 23.1116H67.086C66.0159 23.1116 65.1602 22.8137 64.5486 22.24L64.5189 22.2102C63.9213 21.5809 63.6336 20.8721 63.6336 20.0441C63.6336 19.2162 63.9312 18.4519 64.5189 17.8325C65.1108 17.2031 65.9224 16.8854 66.9234 16.8854H76.8062V14.7393H66.5558C65.4421 14.7393 64.4852 14.9974 63.6295 15.5235C62.7738 16.0238 62.1264 16.669 61.6539 17.491C61.1814 18.3149 60.9473 19.1865 60.9473 20.1633C60.9473 21.3088 61.1913 22.2797 61.6778 23.054C62.2001 23.8422 62.8928 24.4318 63.7925 24.8627C64.7276 25.2597 65.8372 25.4622 67.086 25.4622H71.3108C72.0216 25.4622 72.655 25.625 73.1909 25.9487C73.7391 26.2405 74.1462 26.6574 74.4162 27.1875C74.68 27.6839 74.8031 28.1881 74.8031 28.7798C74.8031 29.3714 74.6582 29.965 74.3705 30.5051C74.0824 31.051 73.64 31.5057 73.0621 31.863C72.52 32.1847 71.857 32.3435 71.1063 32.3435H61.5963V34.4857H71.559C72.7522 34.4857 73.7589 34.2177 74.6384 33.6677C75.5538 33.1119 76.2407 32.419 76.7428 31.5355C77.2511 30.6281 77.4932 29.6871 77.4932 28.6547C77.4932 27.4555 77.2392 26.4291 76.747 25.6151C76.2843 24.813 75.5913 24.2115 74.6364 23.7866L74.6306 23.7905H74.6343Z" fill="white"/>
<path d="M98.2294 15.6388C96.6868 14.7157 94.8763 14.2451 92.8513 14.2451C90.8259 14.2451 89.0195 14.7157 87.467 15.6428C85.9183 16.5402 84.6753 17.795 83.7702 19.3713C82.8647 20.914 82.4062 22.679 82.4062 24.6127C82.4062 26.5465 82.8647 28.3313 83.7702 29.8978C84.6753 31.4444 85.9203 32.6991 87.467 33.6263C88.9438 34.4899 90.6712 34.9446 92.5932 34.9803H92.8513C94.8763 34.9843 96.6831 34.5336 98.2294 33.6323C99.8078 32.7051 101.051 31.4503 101.932 29.9097C102.837 28.3373 103.296 26.5584 103.296 24.6207C103.296 22.6829 102.837 20.8723 101.932 19.3296C101.051 17.787 99.8078 16.5481 98.2294 15.6468V15.6408V15.6388ZM100.564 24.6187C100.564 26.1454 100.241 27.5491 99.5995 28.7939C98.9583 30.0189 98.0528 31.0056 96.9132 31.7342C95.7776 32.4589 94.37 32.8401 92.8472 32.8401C91.3243 32.8401 89.9604 32.4688 88.7812 31.7342C87.6415 31.0056 86.7361 30.0149 86.0891 28.79C85.4515 27.5511 85.1239 26.1474 85.1239 24.6207C85.1239 23.0939 85.4478 21.7061 86.0891 20.4911C86.7303 19.2363 87.6415 18.2298 88.787 17.5011C89.9604 16.7665 91.3305 16.4013 92.8472 16.4013C94.3638 16.4013 95.7579 16.7725 96.9132 17.5071C98.0586 18.2417 98.9641 19.2423 99.6053 20.4871C100.243 21.7061 100.57 23.0939 100.57 24.6226H100.564V24.6187Z" fill="white"/>
<path d="M123.22 15.3677C121.856 14.6292 120.249 14.252 118.437 14.252C116.624 14.252 115.038 14.6292 113.644 15.3776C112.246 16.0963 111.176 17.089 110.374 18.3974C109.608 19.6958 109.219 21.2384 109.219 22.9836V34.4947H111.907V23.0233C111.907 21.6752 112.211 20.49 112.809 19.5072C113.426 18.5066 114.242 17.7283 115.232 17.1863C116.237 16.6562 117.313 16.3882 118.437 16.3882C119.561 16.3882 120.627 16.6562 121.602 17.1863C122.612 17.7223 123.428 18.5006 124.03 19.5112C124.651 20.4919 124.965 21.6673 124.965 23.0153V34.4868H127.657V22.9757C127.657 21.2365 127.254 19.6879 126.462 18.3894C125.686 17.0751 124.625 16.0884 123.222 15.3598L123.218 15.3657L123.22 15.3677Z" fill="white"/>
<path d="M137.453 14.7363H134.725V34.4888H137.453V14.7363Z" fill="white"/>
<path d="M149.913 17.9387C151.112 17.2399 152.47 16.8825 153.959 16.8825H156V14.7363H154.084C152.03 14.7363 150.167 15.183 148.565 16.0605C146.963 16.9341 145.678 18.1372 144.743 19.6303C143.818 21.0875 143.35 22.7632 143.35 24.6135C143.35 26.4639 143.818 28.1475 144.743 29.6365C145.675 31.1037 146.963 32.2889 148.565 33.1665C149.969 33.9289 152.717 34.4907 153.946 34.4907H156V32.3445H153.959C152.476 32.3445 151.112 32.0031 149.909 31.328C148.744 30.6292 147.795 29.6822 147.092 28.5167C146.421 27.3474 146.078 26.0331 146.078 24.6095C146.078 23.186 146.421 21.8678 147.098 20.6984C147.795 19.5389 148.746 18.6058 149.915 17.9367V17.9427L149.913 17.9387Z" fill="white"/>
<path d="M29.6132 30.5899C20.3177 33.3813 12.6286 37.4533 7.81393 42.2244L7.60156 42.4367C8.88199 43.6476 10.2855 44.7317 11.8026 45.6528L12.1281 45.254C13.4423 43.6476 14.852 42.0972 16.3192 40.6359C20.258 36.7108 24.7648 33.3138 29.6173 30.5859L29.6112 30.5899H29.6132Z" fill="white"/>
<path d="M0 26.4521C0.371244 31.4295 2.21964 35.9938 5.12045 39.7065L5.25339 39.5735C8.23322 36.6331 12.1128 33.9608 16.7924 31.632C20.8938 29.589 25.6031 27.836 30.6799 26.4521H0Z" fill="white"/>
<path d="M18.9182 5.9958C27.235 14.2827 37.7018 19.7623 49.1832 21.841C47.7995 9.55559 37.3425 0 24.6362 0C21.281 0 18.0827 0.669067 15.1621 1.87617C16.3475 3.30365 17.6139 4.6934 18.9182 5.99778V5.9958Z" fill="white"/>
<path d="M7.81385 7.01074C12.6285 11.7875 20.3176 15.8536 29.6131 18.6509C24.761 15.9191 20.2542 12.5261 16.315 8.601C14.8518 7.14376 13.4442 5.59318 12.1239 3.98304L11.7983 3.58398C10.2817 4.50521 8.87776 5.58721 7.60352 6.79828L7.81591 7.01074H7.81385Z" fill="white"/>
<path d="M19.7194 43.2378C18.4089 44.5421 17.1441 45.932 15.9629 47.3594C18.8793 48.5665 22.0818 49.2357 25.437 49.2357C38.1433 49.2357 48.6003 39.6781 49.9881 27.3887C38.5088 29.4674 28.0419 34.947 19.7231 43.2341L19.7194 43.2378Z" fill="white"/>
<path d="M16.7939 17.5999C12.1147 15.2711 8.23517 12.5968 5.25534 9.65841L5.12197 9.52539C2.22158 13.238 0.373197 17.8024 0.00195312 22.7797H30.6757C25.6013 21.3959 20.8958 19.6428 16.7882 17.5939L16.7923 17.5999H16.7939Z" fill="white"/>
<path d="M61.4199 45.6595V40.1006H62.0871V44.9924H64.5768V45.6595H61.4199Z" fill="white"/>
<path d="M73.5115 40.1006H74.3174L76.3386 45.6595H75.6319L75.2187 44.524H72.6101L72.201 45.6595H71.4902L73.5115 40.1006ZM72.8583 43.8568H74.9747L73.9144 40.9543L72.8583 43.8568Z" fill="white"/>
<path d="M83.416 45.6595V40.1006H85.334C85.6097 40.1006 85.86 40.1562 86.0863 40.2694C86.3127 40.3825 86.4913 40.5453 86.6243 40.7597C86.7572 40.9742 86.8226 41.2301 86.8226 41.5302C86.8226 41.6907 86.7951 41.8479 86.7416 41.9965C86.6877 42.1455 86.6123 42.2747 86.5189 42.3817C86.4259 42.4891 86.3185 42.5603 86.1995 42.5982C86.3662 42.6398 86.507 42.7155 86.6243 42.8225C86.7416 42.9299 86.8346 43.0547 86.9083 43.1979C86.9815 43.3407 87.0334 43.4897 87.0651 43.6465C87.0968 43.8033 87.1128 43.9544 87.1128 44.0992C87.1128 44.4067 87.0433 44.6767 86.9041 44.9113C86.7654 45.1455 86.5786 45.3282 86.3465 45.4612C86.1139 45.5941 85.8559 45.6595 85.576 45.6595H83.416ZM84.0832 42.348H85.2702C85.5147 42.348 85.7229 42.2768 85.8958 42.1315C86.0682 41.9866 86.1559 41.7862 86.1559 41.526C86.1559 41.2462 86.0682 41.0357 85.8958 40.8967C85.7229 40.7578 85.5147 40.6883 85.2702 40.6883H84.0832V42.348ZM84.0832 45.0718H85.5163C85.6991 45.0718 85.8657 45.0245 86.0147 44.931C86.1637 44.8376 86.2847 44.7088 86.374 44.5437C86.4634 44.3791 86.509 44.1943 86.509 43.9881C86.509 43.8054 86.4634 43.6325 86.374 43.4699C86.2847 43.3069 86.1637 43.1761 86.0147 43.0748C85.8657 42.9736 85.6991 42.9238 85.5163 42.9238H84.0832V45.0718Z" fill="white"/>
<path d="M96.2146 45.7631C95.915 45.7631 95.6273 45.7158 95.3491 45.6224C95.0713 45.529 94.8288 45.394 94.6206 45.2194C94.4119 45.0445 94.2654 44.8363 94.1777 44.5959L94.8013 44.3617C94.8548 44.5107 94.9523 44.6395 95.0972 44.7486C95.2421 44.8581 95.4108 44.9433 95.6071 45.005C95.8039 45.0663 96.0064 45.0964 96.2146 45.0964C96.4529 45.0964 96.6756 45.0565 96.8798 44.9791C97.0843 44.9017 97.251 44.7926 97.3782 44.6515C97.5054 44.5107 97.5687 44.3477 97.5687 44.1592C97.5687 43.9707 97.5033 43.8077 97.3703 43.6847C97.2374 43.5616 97.0687 43.4641 96.862 43.3908C96.6554 43.3171 96.4394 43.2616 96.2146 43.2221C95.8314 43.1587 95.4882 43.0673 95.1845 42.95C94.8807 42.8327 94.6424 42.6681 94.4658 42.4557C94.2888 42.2433 94.2016 41.9655 94.2016 41.6177C94.2016 41.2942 94.295 41.0123 94.4815 40.7721C94.6683 40.5318 94.9144 40.3452 95.2223 40.2122C95.5298 40.0792 95.8594 40.0137 96.2146 40.0137C96.5085 40.0137 96.7945 40.0594 97.0703 40.1507C97.3465 40.242 97.5905 40.375 97.8029 40.5497C98.0157 40.7244 98.1663 40.9369 98.2598 41.1889L97.6284 41.4193C97.5749 41.2683 97.4774 41.1374 97.3325 41.0282C97.1876 40.919 97.0189 40.8336 96.8242 40.7741C96.6299 40.7145 96.4274 40.6847 96.2146 40.6847C95.9784 40.6827 95.7602 40.7205 95.5557 40.7999C95.3511 40.8793 95.1865 40.9885 95.0593 41.1295C94.9321 41.2703 94.8688 41.4333 94.8688 41.6177C94.8688 41.8404 94.9284 42.0108 95.0453 42.1281C95.1626 42.2454 95.3236 42.3347 95.5277 42.3923C95.7323 42.4499 95.9607 42.5014 96.2146 42.5471C96.5743 42.6084 96.9077 42.7039 97.2156 42.8348C97.523 42.966 97.7692 43.1406 97.956 43.3571C98.1425 43.5735 98.2359 43.8415 98.2359 44.1592C98.2359 44.477 98.1425 44.7647 97.956 45.005C97.7692 45.245 97.523 45.4318 97.2156 45.5648C96.9077 45.6977 96.5743 45.7631 96.2146 45.7631Z" fill="white"/>
</svg>
